<svg width="27" height="34" viewBox="0 0 27 34" fill="none" xmlns="http://www.w3.org/2000/svg">
<g id="page_icon">
<path id="page_icon_2" d="M4.02783 0.271301C1.95677 0.271301 0.277832 1.95023 0.277832 4.0213V29.8546C0.277832 31.9256 1.95677 33.6046 4.02783 33.6046H23.1945C25.2655 33.6046 26.9445 31.9256 26.9445 29.8546V4.0213C26.9445 1.95023 25.2655 0.271301 23.1945 0.271301H4.02783ZM2.77783 4.0213C2.77783 3.33095 3.33748 2.7713 4.02783 2.7713H23.1945C23.8848 2.7713 24.4445 3.33095 24.4445 4.0213V29.8546C24.4445 30.545 23.8848 31.1046 23.1945 31.1046H4.02783C3.33748 31.1046 2.77783 30.545 2.77783 29.8546V4.0213ZM6.52783 7.7713C5.83748 7.7713 5.27783 8.33095 5.27783 9.0213C5.27783 9.71165 5.83748 10.2713 6.52783 10.2713H20.6945C21.3848 10.2713 21.9445 9.71165 21.9445 9.0213C21.9445 8.33095 21.3848 7.7713 20.6945 7.7713H6.52783ZM5.27783 24.0213C5.27783 23.331 5.83748 22.7713 6.52783 22.7713H20.6945C21.3848 22.7713 21.9445 23.331 21.9445 24.0213C21.9445 24.7116 21.3848 25.2713 20.6945 25.2713H6.52783C5.83748 25.2713 5.27783 24.7116 5.27783 24.0213ZM6.52783 15.2713C5.83748 15.2713 5.27783 15.831 5.27783 16.5213C5.27783 17.2116 5.83748 17.7713 6.52783 17.7713H20.6945C21.3848 17.7713 21.9445 17.2116 21.9445 16.5213C21.9445 15.831 21.3848 15.2713 20.6945 15.2713H6.52783Z" fill="white"/>
</g>
</svg>
